<?xml version="1.0" standalone="no"?>
<!DOCTYPE svg PUBLIC "-//W3C//DTD SVG 20010904//EN"
 "http://www.w3.org/TR/2001/REC-SVG-20010904/DTD/svg10.dtd">
<svg version="1.0" xmlns="http://www.w3.org/2000/svg"
 width="512.000000pt" height="512.000000pt" viewBox="0 0 512.000000 512.000000"
 preserveAspectRatio="xMidYMid meet">
<metadata>
Created by potrace 1.14, written by Peter Selinger 2001-2017
</metadata>
<g transform="translate(0.000000,512.000000) scale(0.100000,-0.100000)"
fill="#000000" stroke="none">
<path d="M2467 5080 c-347 -43 -426 -64 -642 -169 -214 -105 -314 -184 -548
-436 -240 -258 -314 -370 -458 -687 -124 -271 -158 -358 -234 -588 -59 -178
-86 -247 -114 -285 -75 -104 -240 -294 -353 -408 -68 -68 -118 -127 -118 -138
0 -10 9 -28 21 -40 15 -15 18 -24 10 -32 -17 -17 -13 -52 7 -77 l19 -23 74 18
c98 24 201 60 274 99 33 17 63 32 68 34 4 2 7 -41 7 -95 0 -107 23 -318 40
-373 10 -31 6 -54 -35 -195 -71 -245 -137 -410 -211 -527 -26 -40 -32 -96 -12
-116 6 -6 12 -33 12 -59 l1 -48 38 -3 c29 -3 61 8 133 43 108 52 215 146 274
239 19 30 37 55 40 55 3 1 18 -25 33 -57 42 -86 117 -183 187 -241 33 -28 64
-51 68 -51 5 0 13 -20 20 -44 6 -25 26 -61 43 -80 30 -34 31 -38 24 -98 -18
-178 -47 -228 -129 -228 -62 0 -114 28 -165 88 -55 66 -119 178 -127 222 -11
59 -37 76 -68 44 -12 -11 -16 -35 -16 -85 0 -70 3 -85 42 -249 44 -187 132
-309 273 -380 63 -31 80 -35 167 -38 157 -6 278 44 376 154 135 152 208 413
186 672 -5 62 -8 112 -6 112 1 0 100 -49 220 -109 230 -116 384 -176 436 -168
60 8 312 79 406 114 108 40 252 109 315 152 24 16 45 27 48 25 2 -2 -2 -41 -9
-86 -7 -46 -16 -144 -20 -218 -6 -115 -4 -150 15 -241 35 -176 66 -244 146
-318 80 -73 233 -131 348 -131 199 0 369 122 422 302 16 56 12 93 -10 84 -8
-3 -11 4 -10 17 1 12 3 29 4 37 1 9 8 2 18 -15 35 -67 72 -84 94 -44 12 23 10
44 -16 184 -20 112 -18 195 10 381 20 133 36 196 94 370 77 233 116 330 129
327 4 -1 55 -33 113 -71 216 -145 289 -171 289 -104 0 15 -9 38 -19 52 -14 18
-17 29 -10 42 11 21 9 25 -72 158 -53 86 -139 257 -139 275 0 4 30 -21 67 -55
137 -128 293 -210 402 -210 57 0 144 24 161 45 15 18 0 91 -18 88 -8 -2 -9 4
-2 21 17 47 -4 80 -140 212 -146 143 -195 209 -312 429 -99 185 -122 238 -216
510 -91 262 -100 309 -106 555 -6 230 -32 368 -109 565 -74 193 -180 368 -283
470 -111 110 -370 267 -526 319 -96 33 -207 35 -326 6 l-82 -20 -35 39 c-84
93 -211 115 -478 81z m266 -77 c-13 -2 -33 -2 -45 0 -13 2 -3 4 22 4 25 0 35
-2 23 -4z m96 -22 c36 -19 72 -51 55 -51 -4 0 -17 9 -29 20 -11 11 -39 26 -60
34 -22 8 -32 15 -22 15 10 1 35 -8 56 -18z m-459 -12 c-25 -4 -56 -7 -70 -7
-38 1 37 15 80 15 32 0 31 0 -10 -8z m-117 -16 c-7 -2 -19 -2 -25 0 -7 3 -2 5
12 5 14 0 19 -2 13 -5z m-56 -9 c-3 -3 -12 -4 -19 -1 -8 3 -5 6 6 6 11 1 17
-2 13 -5z m1095 -45 c45 -10 50 -13 30 -20 -12 -5 -25 -15 -28 -24 -4 -8 -14
-15 -24 -15 -13 0 -16 6 -13 24 4 19 0 24 -27 30 -48 9 -108 7 -115 -4 -3 -5
-18 -10 -33 -10 -31 0 -19 16 18 23 50 9 140 7 192 -4z m-1296 -20 c-14 -11
-38 -22 -52 -25 -14 -3 -66 -25 -115 -49 -49 -25 -89 -43 -89 -40 0 9 254 134
274 135 5 0 -3 -9 -18 -21z m1539 -67 c91 -45 195 -113 220 -143 l20 -24 -20
16 c-47 38 -163 99 -188 99 -40 0 -98 33 -126 70 l-23 32 23 -7 c13 -4 56 -23
94 -43z m-1805 -56 c0 -2 -18 -15 -40 -30 -22 -14 -40 -24 -40 -22 0 5 71 56
77 56 2 0 3 -2 3 -4z m2095 -146 c21 -22 37 -40 34 -40 -3 0 -23 18 -44 40
-21 22 -37 40 -34 40 3 0 23 -18 44 -40z m-2566 -300 c-49 -58 -47 -78 9 -95
29 -8 40 -29 16 -31 -26 -1 -105 -49 -120 -72 -10 -15 -17 -29 -16 -32 0 -3
-6 -16 -15 -29 -11 -17 -14 -39 -10 -79 3 -30 3 -61 0 -68 -3 -7 -29 -20 -58
-29 -29 -8 -55 -21 -58 -29 -3 -8 -20 -17 -37 -21 -26 -6 -36 -16 -52 -56 -12
-27 -23 -48 -25 -46 -2 2 17 52 41 111 28 69 74 151 126 229 89 131 229 311
237 303 3 -3 -14 -28 -38 -56z m1068 -104 c24 -1 29 -4 21 -13 -6 -7 -14 -11
-18 -8 -5 3 -12 0 -16 -6 -4 -8 -3 -9 4 -5 35 21 0 -23 -100 -125 -62 -64 -95
-95 -73 -70 22 25 42 48 45 51 3 3 14 16 25 30 l20 24 -27 -17 c-24 -15 -27
-15 -32 0 -5 12 -9 13 -20 3 -11 -9 -22 -7 -48 6 -18 10 -38 17 -45 16 -6 -1
-14 2 -18 8 -3 5 -17 7 -30 4 l-23 -6 17 56 16 55 45 4 c25 3 86 2 135 -1 50
-3 104 -6 122 -6z m-613 -24 c-18 -32 -60 -85 -48 -62 17 33 55 90 60 90 3 0
-2 -13 -12 -28z m158 -59 c-22 -26 -50 -57 -63 -68 -13 -11 -3 5 21 35 71 87
74 90 78 85 3 -2 -14 -26 -36 -52z m528 54 c0 -2 -12 -14 -27 -28 l-28 -24 24
28 c23 25 31 32 31 24z m424 -11 c-4 -10 13 -15 71 -20 41 -4 91 -4 111 0 35
6 36 6 29 -17 -10 -30 -22 -38 -60 -40 -16 -1 -52 -2 -79 -4 -41 -2 -53 1 -71
21 -17 19 -24 21 -35 11 -10 -8 -9 -5 1 13 9 14 19 31 23 38 10 16 17 15 10
-2z m1057 -25 c30 -23 121 -45 148 -36 14 4 23 1 27 -9 3 -9 9 -14 13 -12 5 3
6 -47 2 -85 -1 -8 -67 -3 -81 6 -7 4 -29 8 -51 10 -30 2 -39 -1 -39 -14 0 -9
-18 17 -40 58 -30 58 -36 76 -27 87 16 18 20 17 48 -5z m259 -50 c-1 -13 -29
45 -29 59 0 8 6 0 14 -19 8 -18 15 -36 15 -40z m-373 39 c17 0 29 -12 47 -47
32 -66 136 -348 135 -370 0 -10 -18 34 -40 97 -22 63 -45 120 -50 125 -16 16
0 -56 21 -98 22 -42 24 -51 10 -42 -5 3 -10 2 -10 -4 0 -5 5 -13 10 -16 6 -3
10 -1 10 6 0 7 3 9 7 6 3 -4 -2 -16 -11 -26 -19 -21 -46 -18 -46 5 0 8 -6 14
-12 15 -7 0 -24 2 -37 5 -22 4 -23 2 -18 -33 4 -23 3 -32 -2 -23 -5 8 -16 62
-26 120 -21 131 -23 140 -40 140 -15 0 -35 58 -35 101 0 32 19 52 45 45 11 -3
30 -6 42 -6z m-1417 -13 c0 -2 -15 -16 -32 -33 l-33 -29 29 33 c28 30 36 37
36 29z m920 -42 c0 -5 -5 -3 -10 5 -5 8 -10 20 -10 25 0 6 5 3 10 -5 5 -8 10
-19 10 -25z m-1038 -92 c-77 -87 -201 -207 -208 -201 -4 5 255 267 265 268 1
0 -24 -30 -57 -67z m608 3 c0 -2 -8 -10 -17 -17 -16 -13 -17 -12 -4 4 13 16
21 21 21 13z m70 -21 c13 -14 21 -25 18 -25 -2 0 -15 11 -28 25 -13 14 -21 25
-18 25 2 0 15 -11 28 -25z m-105 -142 l-7 -62 -36 -6 c-20 -3 -49 -8 -64 -10
-26 -4 -28 -2 -28 33 0 20 9 51 19 68 17 28 24 31 63 30 l43 -1 4 40 5 40 4
-35 c2 -19 1 -63 -3 -97z m-770 41 c-72 -66 -82 -72 -117 -65 l-26 6 19 35
c15 28 18 30 13 10 -4 -22 -1 -26 20 -28 18 -1 43 13 83 48 78 66 82 62 8 -6z
m975 -21 c0 -8 12 -25 26 -39 15 -16 24 -34 21 -48 -3 -19 -4 -19 -15 7 -7 15
-31 56 -53 90 -40 59 -40 60 -10 33 17 -17 31 -36 31 -43z m-94 30 c-3 -8 -2
-12 3 -9 10 6 49 -42 75 -91 l16 -32 -52 6 c-29 3 -56 8 -60 12 -10 9 3 141
14 135 5 -3 7 -13 4 -21z m-1188 -8 c-6 -14 -15 -25 -20 -25 -5 0 -1 11 8 25
9 14 18 25 20 25 2 0 -2 -11 -8 -25z m848 -7 c-8 -18 -22 -52 -31 -74 -16 -40
-18 -41 -52 -34 -20 5 -43 6 -52 4 -9 -3 4 12 29 33 24 21 60 53 80 70 19 18
36 33 37 33 2 0 -4 -15 -11 -32z m983 -63 c17 -44 31 -84 31 -89 0 -9 -67 -1
-116 15 -32 10 -51 43 -32 55 5 3 7 12 4 20 -3 8 1 14 9 14 8 0 15 4 15 9 0
14 37 20 50 7 9 -8 10 -3 5 24 -11 52 0 35 34 -55z m-352 -25 c14 -11 20 -20
14 -20 -7 0 -9 -4 -6 -10 4 -6 -7 -10 -24 -10 -34 0 -38 14 -24 81 8 33 8 33
11 7 2 -15 15 -37 29 -48z m201 -25 c0 -29 0 -29 -8 -5 -4 14 -8 36 -8 50 -1
23 0 23 8 5 5 -11 8 -33 8 -50z m-49 -10 c1 -16 -1 -17 -9 -5 -5 8 -9 29 -9
45 1 29 1 29 9 5 4 -14 8 -34 9 -45z m838 -7 c-3 -7 -5 -2 -5 12 0 14 2 19 5
13 2 -7 2 -19 0 -25z m-1293 -338 c23 0 48 -6 55 -12 11 -11 12 -10 6 1 -5 9
-3 12 6 9 8 -3 14 -14 15 -25 1 -17 -10 -23 -70 -37 -39 -10 -76 -20 -83 -22
-7 -4 -6 15 5 58 9 35 18 55 20 46 3 -14 14 -18 46 -18z m42 -166 c-9 -8 -16
-24 -16 -35 0 -10 0 -22 0 -26 0 -4 6 -8 15 -9 8 -1 12 2 9 8 -4 6 1 8 14 4
11 -4 30 -9 41 -11 12 -2 26 -7 33 -11 7 -4 23 -8 36 -9 13 0 28 -9 34 -19 8
-15 12 -16 19 -5 13 19 20 6 53 -97 26 -78 28 -120 6 -84 -15 24 -228 21 -305
-5 -75 -24 -166 -86 -218 -148 -62 -72 -36 -68 36 7 77 80 160 122 263 134 73
9 204 4 204 -7 0 -4 -51 -57 -112 -118 -88 -86 -122 -113 -153 -121 -22 -6
-78 -20 -125 -32 -113 -27 -125 -33 -143 -69 l-15 -30 38 -6 38 -6 -4 -45 c-5
-49 -1 -51 53 -29 19 8 36 15 37 15 0 0 1 -51 2 -113 1 -106 13 -175 37 -205
10 -13 223 -16 282 -3 60 12 114 175 115 344 0 48 4 87 9 87 5 0 22 -3 39 -6
25 -5 31 -12 37 -41 8 -44 31 -38 27 7 -3 23 0 31 10 28 16 -6 14 -44 -14
-203 -26 -154 -66 -294 -118 -420 -55 -131 -58 -150 -30 -165 20 -11 26 -9 49
13 14 15 46 43 70 64 l43 37 -80 -160 c-87 -174 -93 -204 -41 -204 15 0 31 5
34 10 4 6 30 22 58 37 61 30 183 111 245 161 l44 35 -21 -41 c-11 -22 -29 -43
-40 -47 -10 -3 -61 -56 -112 -118 -109 -132 -226 -246 -253 -247 -10 0 -41
-21 -70 -47 -71 -64 -169 -126 -289 -183 -116 -55 -194 -82 -390 -135 l-137
-37 -83 26 c-91 28 -507 235 -602 299 -78 53 -173 144 -247 236 -59 73 -59 74
-36 85 36 18 33 47 -17 163 -85 194 -95 221 -125 319 -17 54 -39 145 -51 203
-11 58 -22 118 -25 134 -4 19 -1 27 8 27 7 0 45 13 84 30 62 26 241 66 251 56
2 -2 -2 -45 -9 -97 -22 -166 -15 -259 22 -279 24 -13 236 -26 273 -16 29 7 44
40 27 61 -6 8 -30 15 -53 17 l-42 3 40 25 c56 35 55 34 55 6 0 -14 4 -26 9
-26 11 0 21 25 21 55 0 23 53 75 77 75 20 0 206 186 284 283 44 56 91 116 104
132 20 25 17 14 -16 -63 -24 -56 -39 -108 -39 -133 0 -22 -13 -71 -30 -111
-17 -40 -29 -77 -26 -83 2 -7 -18 -38 -45 -69 -55 -64 -53 -60 -39 -87 21 -38
49 -21 158 92 146 152 334 435 473 714 l100 200 72 22 c90 27 104 28 83 7z
m-936 -53 c-7 -13 -7 -20 0 -23 14 -4 -13 -80 -95 -268 -37 -85 -69 -156 -70
-158 -4 -4 -155 49 -155 55 0 2 32 41 71 86 39 45 112 137 162 205 90 120 108
141 87 103z m-647 -18 c-18 -2 -33 -8 -33 -13 0 -5 7 -7 15 -4 24 10 18 -3
-37 -74 -28 -37 -49 -62 -47 -56 2 5 18 43 34 82 29 71 31 72 65 70 l35 -1
-32 -4z m-702 -30 c-12 -20 -14 -14 -5 12 4 9 9 14 11 11 3 -2 0 -13 -6 -23z
m983 -50 c-14 -38 -42 -112 -63 -166 l-36 -99 -42 5 c-54 6 -60 -18 -7 -28 33
-6 35 -8 29 -33 -3 -15 -14 -35 -24 -45 -15 -16 -20 -16 -68 -2 -28 8 -67 22
-86 30 l-35 15 70 67 c75 73 233 250 262 296 10 15 20 27 22 27 2 0 -8 -30
-22 -67z m-259 -35 c-64 -77 -187 -198 -196 -192 -6 3 -9 0 -7 -7 1 -8 -12
-30 -30 -49 -23 -24 -32 -42 -29 -57 2 -13 -2 -28 -9 -34 -11 -9 -14 -5 -14
20 0 21 13 49 39 84 21 29 53 78 71 110 17 31 34 57 37 57 2 0 -8 -23 -23 -50
-31 -58 -27 -77 7 -28 20 29 168 178 177 178 2 0 -8 -15 -23 -32z m601 -116
c-19 -50 -40 -108 -45 -129 -11 -38 -55 -102 -64 -93 -3 3 27 76 66 162 39 87
72 156 74 154 2 -2 -12 -44 -31 -94z m-325 -6 c5 -6 17 -2 31 10 12 10 2 -5
-22 -35 -25 -29 -53 -63 -62 -74 -31 -40 -29 -10 4 68 20 47 34 70 36 59 2
-11 8 -23 13 -28z m-1049 -3 c-6 -10 -25 -31 -43 -48 -36 -33 -31 -19 14 38
30 38 47 45 29 10z m1714 -33 c-36 -54 -42 -51 -9 5 15 24 29 42 32 40 2 -3
-8 -23 -23 -45z m1151 -42 c-2 -13 -4 -5 -4 17 -1 22 1 32 4 23 2 -10 2 -28 0
-40z m-233 -47 c3 -22 9 -46 12 -54 4 -12 -5 -17 -39 -22 -24 -4 -54 -5 -66
-3 -20 3 -18 7 26 60 26 32 51 58 54 58 4 0 9 -18 13 -39z m126 -32 l0 -51
-32 7 c-41 9 -38 5 -45 51 l-6 39 21 -25 c14 -18 17 -27 9 -32 -7 -4 -8 -8 -3
-8 17 0 46 33 46 52 0 10 2 18 5 18 3 0 5 -23 5 -51z m-1649 -28 c113 -40 109
-37 98 -69 l-10 -29 -52 18 c-29 10 -79 18 -112 19 l-59 0 39 40 c21 22 40 40
40 40 1 0 26 -9 56 -19z m-456 -53 c14 -6 25 -14 25 -18 0 -3 -27 -11 -60 -16
l-59 -10 32 28 c38 33 31 30 62 16z m596 -36 c-7 -13 -7 -22 2 -31 9 -10 8
-11 -5 -6 -10 4 -18 11 -18 17 0 15 21 50 27 45 2 -3 0 -14 -6 -25z m-1594
-120 c-24 -25 -25 -29 -11 -43 14 -14 10 -18 -41 -37 -31 -12 -60 -22 -63 -22
-7 0 130 129 137 130 3 0 -7 -13 -22 -28z m2738 18 c-3 -5 -11 -10 -16 -10 -6
0 -7 5 -4 10 3 6 11 10 16 10 6 0 7 -4 4 -10z m-61 -20 c18 -6 26 -17 26 -33
0 -38 -98 -117 -144 -117 -23 0 -26 4 -26 32 0 54 51 109 117 127 1 1 13 -3
27 -9z m-1360 -33 c27 -20 16 -56 -26 -90 -34 -28 -38 -28 -67 -16 -23 10 -31
21 -31 39 0 33 9 46 45 64 37 19 56 20 79 3z m653 -45 c-48 -67 -61 -71 -32
-11 18 36 33 55 45 55 16 0 14 -7 -13 -44z m791 -19 c23 -18 72 -16 94 4 19
17 19 16 14 -7 -3 -14 -10 -49 -15 -78 -6 -29 -17 -68 -25 -87 l-15 -35 -101
0 c-111 0 -105 -4 -113 75 -5 50 -5 51 36 77 23 15 43 25 45 23 3 -2 7 -19 11
-37 5 -24 12 -33 26 -33 17 0 21 8 23 48 2 36 -1 49 -13 53 -13 5 -13 9 -3 21
10 12 13 13 16 2 2 -8 11 -20 20 -26z m-1458 -94 c0 -26 3 -30 23 -27 16 2 23
11 25 31 3 21 8 27 19 23 8 -3 19 -6 24 -6 16 0 10 -29 -16 -80 -14 -27 -25
-59 -25 -71 0 -19 -4 -21 -37 -15 -21 3 -46 6 -55 6 -15 0 -18 10 -18 69 0 60
3 71 23 84 32 23 37 21 37 -14z m180 -4 c-22 -26 -3 -28 32 -4 53 37 14 -5
-57 -61 -35 -28 -66 -50 -69 -50 -3 0 9 29 26 65 26 53 37 65 56 65 21 0 23
-2 12 -15z m1667 -27 c-3 -7 -5 -2 -5 12 0 14 2 19 5 13 2 -7 2 -19 0 -25z
m-17 -78 c-7 -28 -14 -49 -16 -47 -3 2 1 27 8 55 6 29 13 50 16 47 2 -2 -1
-27 -8 -55z m-2823 -72 c-3 -8 -6 -5 -6 6 -1 11 2 17 5 13 3 -3 4 -12 1 -19z
m2857 10 c-20 -36 -97 -139 -100 -135 -4 4 35 128 43 137 3 3 11 -3 18 -13 13
-18 14 -18 25 2 6 12 13 21 16 21 3 0 2 -6 -2 -12z m1014 -49 c-3 -8 -7 -3
-11 10 -4 17 -3 21 5 13 5 -5 8 -16 6 -23z m527 -147 c-3 -3 -6 -3 -7 -1 -2 2
-14 18 -28 34 l-25 30 32 -29 c18 -16 31 -32 28 -34z m-855 -45 c0 -2 -10 -12
-22 -23 l-23 -19 19 23 c18 21 26 27 26 19z m-2911 -179 c17 -27 8 -22 -30 19
-27 29 -28 32 -7 17 14 -10 31 -27 37 -36z m2905 -139 c-76 -214 -120 -387
-140 -550 -10 -76 -19 -138 -20 -136 -11 11 -45 344 -41 402 6 80 -3 105 -38
105 -30 0 -45 -26 -45 -80 0 -43 -30 -113 -83 -189 -40 -59 -148 -183 -154
-178 -2 3 12 59 31 126 20 66 45 173 57 236 20 107 24 117 49 130 38 19 97 91
105 125 5 25 12 28 58 34 57 7 255 100 264 123 3 8 7 12 9 10 2 -2 -21 -73
-52 -158z m-733 127 c22 13 6 -4 -22 -25 l-32 -24 19 32 c10 18 20 27 22 21 2
-5 8 -8 13 -4z m243 -5 c3 -5 -1 -11 -9 -14 -9 -4 -12 -1 -8 9 6 16 10 17 17
5z m186 -96 c0 -76 -70 -145 -148 -145 -32 0 -65 30 -82 74 -16 44 -5 63 40
68 38 3 39 3 45 -34 7 -39 19 -46 46 -25 18 13 49 70 49 88 0 6 8 18 17 25 23
16 33 2 33 -51z m-2689 39 c10 -13 10 -20 -4 -44 -28 -48 -15 -123 24 -135 16
-5 25 -41 31 -120 1 -23 -20 -112 -34 -139 -9 -17 -7 -18 24 -12 l33 6 -3 -71
c-4 -78 10 -111 27 -66 6 15 12 49 13 77 2 27 6 50 9 50 3 0 18 -14 34 -30 38
-40 38 -91 1 -154 -34 -59 -63 -78 -104 -70 -45 9 -56 45 -48 154 4 57 3 90
-3 90 -5 0 -13 -20 -17 -45 -6 -41 -9 -45 -33 -45 -37 0 -63 31 -106 123 l-36
78 21 17 c18 14 22 30 24 77 0 33 -2 72 -7 87 -7 26 -6 27 29 21 40 -7 64 12
64 50 0 10 9 32 21 48 12 17 19 39 16 49 -6 24 6 26 24 4z m2599 -44 c-7 -16
-16 -30 -21 -30 -16 0 -9 49 8 59 25 13 28 7 13 -29z m-90 -158 c24 -11 40
-24 40 -34 0 -63 -96 -437 -126 -491 -8 -15 -32 -85 -51 -155 -47 -167 -55
-290 -24 -373 35 -94 105 -148 196 -152 52 -3 43 -13 -25 -27 -74 -16 -167 -8
-241 19 -172 65 -247 175 -256 376 -4 85 2 138 39 357 l44 257 95 89 c52 50
123 126 159 170 l65 80 22 -50 c18 -39 30 -53 63 -66z m-2424 -28 c-4 -19 -11
-32 -17 -29 -13 9 -11 59 3 73 17 17 22 1 14 -44z m173 -127 c47 -48 106 -101
132 -117 43 -28 47 -34 53 -83 9 -77 7 -327 -3 -367 -28 -109 -55 -188 -82
-242 -99 -197 -322 -295 -496 -218 -100 44 -171 115 -208 205 l-17 40 49 -47
c61 -59 122 -87 191 -88 161 0 225 120 221 417 l-2 122 33 27 c37 32 80 115
80 157 0 35 -23 81 -51 101 -31 21 -72 148 -59 181 6 15 10 38 10 53 1 27 1
26 32 -13 18 -22 71 -80 117 -128z m-509 40 c0 -16 -18 3 -23 25 -6 22 -5 22
8 4 8 -11 15 -24 15 -29z m-257 2 c-26 -45 -142 -149 -204 -183 l-53 -29 21
34 c12 19 33 54 48 79 15 25 25 38 22 28 -7 -19 28 -32 52 -18 9 5 41 34 71
64 30 31 56 56 58 56 2 0 -5 -14 -15 -31z m130 8 c3 -8 -1 -14 -8 -14 -7 0
-11 6 -8 14 3 7 6 13 8 13 2 0 5 -6 8 -13z m474 -80 c5 -32 3 -37 -14 -37 -29
0 -32 7 -20 51 11 46 25 40 34 -14z m-537 -10 c0 -1 -26 -27 -57 -57 l-58 -55
55 58 c50 53 60 62 60 54z m225 -147 c66 -71 67 -72 11 -20 -31 30 -67 69 -78
85 -24 34 -25 35 67 -65z m2205 24 c0 -8 -5 -12 -10 -9 -6 4 -8 11 -5 16 9 14
15 11 15 -7z m-30 -8 c0 -2 -8 -10 -17 -17 -16 -13 -17 -12 -4 4 13 16 21 21
21 13z m17 -48 c-3 -8 -6 -5 -6 6 -1 11 2 17 5 13 3 -3 4 -12 1 -19z m703 -32
c0 -2 -8 -10 -17 -17 -16 -13 -17 -12 -4 4 13 16 21 21 21 13z m-2799 -23 c13
-16 12 -17 -3 -4 -10 7 -18 15 -18 17 0 8 8 3 21 -13z m2759 -26 c0 -1 -30
-32 -67 -67 l-68 -65 65 68 c60 62 70 72 70 64z m105 -54 c9 -71 36 -198 70
-323 14 -52 25 -96 25 -97 0 -1 -10 -3 -22 -5 -15 -2 -32 -21 -53 -58 -72
-130 -223 -174 -307 -90 -21 22 -28 38 -28 67 0 40 59 264 81 305 6 13 49 61
93 108 45 47 91 100 101 118 11 17 22 32 26 32 4 0 10 -26 14 -57z m-1935 11
c0 -2 -13 2 -30 11 -16 9 -30 18 -30 21 0 2 14 -2 30 -11 17 -9 30 -18 30 -21z
m110 -49 c14 -8 21 -14 15 -14 -5 0 -21 6 -35 14 -14 8 -20 14 -15 14 6 0 21
-6 35 -14z m-921 -58 c-2 -3 -15 10 -28 27 l-24 31 28 -27 c16 -15 27 -29 24
-31z m2499 -12 c-6 -14 -13 -23 -15 -21 -5 5 15 46 22 46 3 0 -1 -11 -7 -25z
m-1311 -21 c-3 -3 -12 -4 -19 -1 -8 3 -5 6 6 6 11 1 17 -2 13 -5z m-650 -96
c-3 -8 -6 -5 -6 6 -1 11 2 17 5 13 3 -3 4 -12 1 -19z m1890 -130 c-3 -8 -6 -5
-6 6 -1 11 2 17 5 13 3 -3 4 -12 1 -19z m452 -93 c0 -5 -6 -1 -14 9 -8 11 -15
24 -15 30 0 5 7 1 15 -10 8 -10 14 -23 14 -29z m-3264 -131 c9 -15 12 -23 6
-20 -11 7 -35 46 -28 46 3 0 12 -12 22 -26z m785 3 c0 -2 -10 -12 -22 -23
l-23 -19 19 23 c18 21 26 27 26 19z m-724 -79 l29 -33 -32 29 c-31 28 -38 36
-30 36 2 0 16 -15 33 -32z m644 -9 c-24 -22 -54 -45 -65 -50 -11 -6 -7 0 10
13 16 13 43 35 60 50 16 15 32 27 35 27 3 0 -15 -18 -40 -40z m1790 -56 c0 -8
-9 0 -50 45 l-45 47 48 -45 c26 -24 47 -45 47 -47z m700 83 c0 -2 -8 -10 -17
-17 -16 -13 -17 -12 -4 4 13 16 21 21 21 13z m-30 -39 c0 -2 -10 -12 -22 -23
l-23 -19 19 23 c18 21 26 27 26 19z m-3049 -24 c13 -16 12 -17 -3 -4 -10 7
-18 15 -18 17 0 8 8 3 21 -13z m2984 -33 c-3 -5 -16 -15 -28 -21 -19 -9 -19
-8 3 10 28 23 34 26 25 11z m-358 -86 c-3 -3 -12 -4 -19 -1 -8 3 -5 6 6 6 11
1 17 -2 13 -5z m170 0 c-3 -3 -12 -4 -19 -1 -8 3 -5 6 6 6 11 1 17 -2 13 -5z"/>
<path d="M2294 2026 c-8 -22 0 -81 11 -80 16 2 37 53 30 74 -7 23 -33 27 -41
6z"/>
<path d="M1960 1685 c-20 -24 -3 -50 93 -142 109 -104 212 -183 237 -183 11 0
22 -4 25 -10 13 -21 56 -8 127 39 80 55 218 179 218 198 0 40 -108 65 -348 83
-79 6 -184 15 -235 20 -51 5 -95 10 -98 10 -4 0 -12 -7 -19 -15z m370 -100
c101 -9 187 -18 189 -21 9 -9 -164 -144 -185 -144 -13 0 -224 173 -224 184 0
2 8 2 18 0 9 -2 100 -11 202 -19z"/>
</g>
</svg>
