<?xml version="1.0" standalone="no"?>
<!DOCTYPE svg PUBLIC "-//W3C//DTD SVG 20010904//EN"
 "http://www.w3.org/TR/2001/REC-SVG-20010904/DTD/svg10.dtd">
<svg version="1.0" xmlns="http://www.w3.org/2000/svg"
 width="260.000000pt" height="260.000000pt" viewBox="0 0 260.000000 260.000000"
 preserveAspectRatio="xMidYMid meet">
<metadata>
Created by potrace 1.14, written by Peter Selinger 2001-2017
</metadata>
<g transform="translate(0.000000,260.000000) scale(0.100000,-0.100000)"
fill="#000000" stroke="none">
<path d="M1610 2129 c-36 -15 -128 -107 -151 -151 -19 -37 -21 -38 -72 -38
-28 0 -90 -7 -137 -16 -158 -28 -140 -31 -186 33 -58 82 -137 128 -219 128
-83 -1 -166 -46 -266 -145 -162 -160 -243 -383 -209 -570 15 -82 63 -228 98
-300 23 -45 41 -64 104 -108 l77 -53 -15 -42 c-42 -116 -55 -267 -30 -336 15
-43 65 -71 126 -71 49 0 97 19 174 69 71 44 96 41 181 -24 132 -101 162 -103
297 -24 97 57 118 59 223 23 93 -32 122 -28 201 28 71 49 104 58 186 48 82 -9
123 1 165 42 59 56 77 102 77 193 0 117 -40 185 -145 248 l-57 33 33 52 c87
138 120 366 76 525 -53 195 -168 339 -336 423 -75 37 -154 51 -195 33z m188
-90 c171 -85 302 -340 290 -564 -8 -142 -80 -325 -128 -325 -10 0 -43 -25 -71
-56 -96 -101 -281 -205 -436 -245 -43 -11 -146 -25 -230 -31 -132 -10 -162 -9
-237 5 -104 21 -204 66 -331 148 -74 47 -99 70 -112 98 -85 198 -107 285 -101
414 6 121 32 200 97 295 93 137 221 233 321 240 55 4 59 3 99 -34 24 -21 51
-54 61 -74 l18 -36 -61 -23 c-56 -21 -87 -43 -87 -62 0 -3 13 -12 28 -18 24
-10 39 -8 106 18 163 63 352 95 466 79 36 -4 70 -6 77 -3 23 8 14 34 -17 50
-16 9 -30 20 -30 25 0 15 71 91 105 112 45 27 102 23 173 -13z m240 -1007 c43
-19 96 -82 110 -131 17 -55 15 -137 -5 -178 -9 -19 -33 -46 -53 -59 -36 -24
-42 -25 -139 -18 l-101 7 -76 -52 c-47 -32 -87 -51 -104 -51 -16 0 -65 12
-108 26 -98 33 -123 29 -223 -31 -110 -66 -127 -67 -197 -12 -73 57 -131 88
-179 94 -32 4 -49 -2 -108 -41 -81 -52 -162 -77 -176 -55 -20 34 -21 120 -1
220 12 56 25 106 29 110 5 5 44 -9 88 -30 154 -73 168 -76 385 -75 219 2 291
13 425 67 133 55 307 169 338 223 9 16 41 11 95 -14z"/>
<path d="M1590 1563 c-62 -27 -141 -34 -201 -18 -49 12 -55 12 -66 -2 -18 -24
0 -40 65 -59 74 -22 174 -14 247 20 58 26 66 40 38 62 -23 17 -39 16 -83 -3z"/>
<path d="M1058 1515 c-61 -22 -138 -27 -195 -12 -45 12 -53 12 -58 0 -10 -27
-5 -34 38 -53 59 -27 178 -27 251 0 62 24 75 43 43 65 -25 18 -31 18 -79 0z"/>
<path d="M1260 1206 c-47 -13 -136 -55 -172 -81 -20 -13 -24 -12 -60 20 -42
39 -62 44 -73 18 -15 -39 163 -163 264 -184 107 -23 213 16 317 115 69 66 78
90 39 108 -21 10 -29 8 -48 -11 l-24 -21 -45 20 c-59 26 -142 33 -198 16z
m198 -71 c9 -8 -31 -38 -88 -67 -51 -25 -180 -32 -214 -12 -18 11 -14 14 35
40 85 43 128 54 197 50 35 -2 66 -7 70 -11z"/>
</g>
</svg>
